<svg id="Layer_1" enable-background="new 0 0 64 64" height="512" viewBox="0 0 64 64" width="512" xmlns="http://www.w3.org/2000/svg"><path d="m59 26h-4v-3h-2v3h-14v-7.4c3.1-1.1 4.8-4.5 3.7-7.6-.8-2.3-2.9-3.8-5.2-4-1.7-4.1-6.4-6.1-10.5-4.4-2 .8-3.6 2.4-4.4 4.4-2.8.2-5 2.3-5.5 5h-7.1c-1.7 0-3 1.3-3 3v17c-2.8 0-5 2.2-5 5v14c0 2.4 1.7 4.4 4 4.9v4.1h-4v2h60v-33c0-1.7-1.3-3-3-3zm-55 25v-14c0-1.7 1.3-3 3-3s3 1.3 3 3v14c0 1.7-1.3 3-3 3s-3-1.3-3-3zm4 4.9c2.3-.5 4-2.5 4-4.9v-14c0-2-1.2-3.8-3-4.6v-17.4c0-.6.4-1 1-1h7.1c.5 2.9 3 5 5.9 5h4v-2h-4c-2.2 0-4-1.8-4-4 0-1.8 1.3-3.5 3.1-3.9v.9 1h2v-1c0-3.3 2.7-6 6-6s6 2.7 6 6v1h2v-1c0-.3 0-.6 0-.9 2.1.5 3.5 2.7 2.9 4.8-.4 1.8-2 3.1-3.9 3.1h-4v2h4v7h-2c-1.7 0-3 1.3-3 3v31h-3v-8h-14.1v8h-7zm19 4.1h-10v-6h10zm7 0v-31c0-.6.4-1 1-1h24c.6 0 1 .4 1 1v31z"/><path d="m29 11h2v10h-2z"/><path d="m36 38h6v-8h-6zm2-6h2v4h-2z"/><path d="m36 48h6v-8h-6zm2-6h2v4h-2z"/><path d="m44 38h6v-8h-6zm2-6h2v4h-2z"/><path d="m44 48h6v-8h-6zm2-6h2v4h-2z"/><path d="m52 38h6v-8h-6zm2-6h2v4h-2z"/><path d="m52 48h6v-8h-6zm2-6h2v4h-2z"/><path d="m36 58h6v-8h-6zm2-6h2v4h-2z"/><path d="m44 58h6v-8h-6zm2-6h2v4h-2z"/><path d="m52 58h6v-8h-6zm2-6h2v4h-2z"/><path d="m15 49h14v-7h-14zm12-2h-4v-3h4zm-10-3h4v3h-4z"/><path d="m15 40h14v-7h-14zm12-2h-4v-3h4zm-10-3h4v3h-4z"/><path d="m29 23h-18v8h18zm-16 2h6v4h-6zm14 4h-6v-4h6z"/><path d="m45.3 14.2 1.3 1.5c4.2-3.7 10.5-3.7 14.7 0l1.3-1.5c-4.9-4.3-12.3-4.3-17.3 0z"/><path d="m59.7 17.3c-3.2-3-8.2-3-11.4 0l1.4 1.4c2.4-2.3 6.2-2.3 8.6 0z"/><path d="m50.4 20.2 1.3 1.6c1.4-1 3.3-1 4.7 0l1.3-1.6c-2.2-1.6-5.2-1.6-7.3 0z"/></svg>